<svg width="100" height="101" viewBox="0 0 100 101" fill="none" xmlns="http://www.w3.org/2000/svg">
<rect width="99.8542" height="100.167" rx="49.9271" fill="url(#paint0_linear_41_213)"/>
<path d="M74.4723 79.3838C88.9613 67.3465 93.0741 45.7271 84.1869 28.8629C74.0178 9.56834 50.0286 2.30961 31.1438 12.8283C9.2838 25.0049 4.22786 55.9028 20.8647 74.9262C23.3941 77.8183 26.2522 80.0155 29.4318 82.0985C29.4318 82.6951 26.4208 82.3594 25.955 82.3008C24.8589 82.163 23.6714 81.7305 22.6196 81.6206C22.4838 81.606 22.1723 81.4946 22.2981 81.8053C22.6525 82.6731 25.0947 83.8941 25.9778 84.1814C35.2051 87.1966 42.8062 79.5831 51.6334 80.124C58.3584 80.5359 64.3347 85.2104 71.0483 84.6593C73.0975 84.4907 75.6326 83.6669 76.6901 81.7349C75.514 81.817 74.3779 82.2553 73.1976 82.3257C72.8503 82.3462 71.124 82.4385 71.124 81.9534C71.124 81.7393 74.0135 79.7678 74.4723 79.3867V79.3838ZM60.6935 73.0119C53.201 75.8922 43.1492 78.0396 35.1451 77.4841C34.8579 77.4636 34.2934 77.4767 34.2891 77.1924C34.4306 77.1821 34.5749 77.1997 34.7164 77.1909C38.9135 76.9256 43.0391 76.5328 47.1662 75.6841C52.5379 74.5788 57.7497 72.792 62.9828 71.1884C63.1529 72.3332 61.5566 72.6806 60.6935 73.0119ZM42.1431 55.8809C41.9902 55.4704 40.7141 53.024 40.8556 52.8833C41.9673 52.873 43.0863 53.0386 44.1895 53.1969C46.6146 53.5443 49.3369 54.0281 51.7348 54.5367C52.4151 54.6804 55.3274 55.3004 55.7018 55.5936C56.142 55.9395 56.0291 57.8773 55.9948 58.5267C55.909 60.1596 55.4832 61.7896 55.4175 63.4269L61.5552 61.6708C61.871 61.9816 59.606 65.3222 58.89 65.4468C58.7114 65.4776 56.0905 64.3196 55.4732 64.1745C51.239 63.1821 46.506 64.3826 42.4232 65.5582C42.2674 65.4395 42.2803 65.3075 42.2889 65.1302C42.3289 64.2815 42.9134 62.9388 42.9948 61.8863C43.1592 59.7697 42.8805 57.8465 42.1431 55.8809ZM44.2067 36.9234C43.9952 36.3576 43.5164 35.9208 43.5679 35.311C45.2027 35.5558 46.8461 35.9589 48.4509 36.3782C49.5941 36.6757 51.3476 37.07 52.3865 37.4658C53.4211 37.8586 53.7341 38.9287 54.097 39.9577C54.6072 41.4074 55.1888 43.8318 55.4017 45.3563C55.4646 45.8063 55.6461 47.2311 55.3517 47.4832C55.0802 47.7162 52.9638 46.9144 52.4222 46.8016C49.5513 46.1991 46.6132 46.5363 43.7079 46.4395C44.2581 44.7348 45.167 42.9479 45.147 41.0937C45.1341 39.9401 44.6139 38.0199 44.2052 36.9249L44.2067 36.9234ZM46.4931 24.3291C46.2102 23.5566 45.6257 22.9278 45.4242 22.1319C45.6543 21.9237 49.1654 22.768 49.7356 22.9058C51.1718 23.2532 53.9155 23.8366 55.1645 24.3658C56.2049 24.807 56.8937 26.7756 57.2009 27.8412C57.4253 28.6196 58.1927 32.6257 57.3395 32.8191C57.1766 32.8558 55.0902 31.2756 54.6558 31.0382C53.3825 30.3419 51.3333 29.6149 49.9028 29.4698C48.851 29.3627 47.7592 29.5049 46.7075 29.3056C46.8175 27.5994 47.0962 25.9752 46.4917 24.3277L46.4931 24.3291ZM50.4201 49.5881C50.443 49.5148 50.5744 49.4195 50.6559 49.3917C51.429 49.1366 55.5889 50.2565 55.8162 51.0818C55.9719 51.6461 55.9834 52.8715 55.829 53.4505C55.5804 53.6675 50.9932 52.6179 50.4201 52.2236C50.5459 51.5464 50.2486 50.1539 50.4201 49.5881ZM58.1298 40.7287C58.4056 40.4648 59.9461 42.2048 60.2019 42.4833C64.0417 46.6623 68.929 52.4992 72.1801 57.1415C72.3387 57.3672 73.1733 58.5442 72.9761 58.7392C70.1408 58.405 67.5128 57.9095 64.619 58.0019C64.2075 58.0151 63.3243 58.3771 63.0514 58.0107C62.1882 51.9788 60.4048 46.3252 58.1298 40.7287ZM50.4201 66.7206C50.4887 66.5022 51.1246 66.382 51.349 66.3556C53.2325 66.1313 56.0162 66.3981 57.874 66.8378C58.3484 66.9507 59.5731 67.5253 59.8946 67.4916C60.4162 67.4359 61.8467 65.5274 62.1854 65.0246C62.9171 63.9414 63.4944 62.1707 64.1503 61.3278C64.5162 60.8588 64.8034 60.7869 65.3579 60.6624C67.1384 60.2607 70.2309 60.0936 72.0558 60.1992C72.4287 60.2211 74.5451 60.4029 74.5451 60.7181C74.085 61.1255 73.5377 61.4627 73.0218 61.7881C70.0437 63.6702 64.902 67.1105 61.7295 68.0706C58.8357 68.9457 54.5372 70.1008 51.6019 70.5669C51.3847 70.6021 50.4215 70.6973 50.4215 70.3822C50.4215 69.6683 50.2815 67.1735 50.4215 66.7206H50.4201ZM65.7723 80.5652C65.2864 80.5989 63.2729 80.7558 63.4687 79.9716C64.7677 77.2407 66.6097 74.5334 67.7201 71.7263C68.0988 70.7692 68.3931 68.8885 68.8347 68.1849C69.2577 67.5107 72.4202 65.2152 73.2733 64.538C75.6498 62.6529 78.9137 60.6096 81.0373 58.5897C81.3745 58.2687 82.2562 57.1957 81.3259 57.1224C80.4757 57.055 78.1177 59.2977 77.4061 58.9664C77.2675 58.9019 76.7073 58.2584 76.5487 58.0781C70.9268 51.7209 66.1481 44.3625 59.7003 38.7498C57.4095 36.7549 56.122 36.4896 53.2753 35.6746C52.4579 35.44 51.2761 35.3491 50.5301 35.0135C50.4201 34.9636 50.2758 34.7262 50.2758 34.6514V32.4542C50.2758 32.4014 50.4344 32.2827 50.513 32.2577C51.4533 31.947 54.57 33.4377 55.5118 33.9669C56.0134 34.2483 58.044 35.8138 58.3984 35.5851C58.517 35.5089 59.0272 33.8701 59.0887 33.5858C59.5988 31.2258 59.4073 28.8834 58.7028 26.5953C58.3055 25.3068 57.4067 23.1887 56.1706 22.6039C55.1931 22.1407 50.9103 21.4547 50.4944 20.9563C49.8185 20.1442 50.7359 14.7764 50.1114 13.7342C49.9142 13.4059 48.9353 13.378 48.6981 13.5554C48.5324 13.6785 48.5924 14.1065 48.4352 14.3103C48.0579 14.8013 42.4018 14.9875 41.9988 15.7629C41.8787 15.9945 42.1631 16.0077 42.2832 16.0487C43.2392 16.3741 44.4367 16.5017 45.4242 16.7846C45.9272 16.9282 48.0193 17.5351 48.2808 17.8092C48.6381 18.1844 48.6953 20.1691 48.2851 20.4535C47.8107 20.7833 40.9327 18.5494 40.5712 18.91C40.9199 20.1369 41.7687 21.2421 42.1474 22.491C42.7676 24.5343 42.5847 26.33 41.783 28.2795C41.2371 29.6075 40.2554 30.6234 39.7152 31.9411C42.1603 31.7828 45.0183 31.151 47.4577 31.541C48.9368 31.7769 48.4495 33.0771 48.2608 34.263C47.8907 34.5004 44.461 33.5682 43.7451 33.445C43.1206 33.338 39.7423 32.7546 39.4894 33.105C39.3136 33.3498 40.1839 35.3022 40.324 35.783C41.7544 40.7155 40.2439 45.1305 37.4302 49.144C37.4544 49.2949 38.3619 49.3682 38.5005 49.3638C40.061 49.3228 41.7801 48.9813 43.3492 48.9212C44.3724 48.8816 46.7518 48.7584 47.6378 48.927C48.4009 49.0721 48.1865 51.0847 47.9736 51.6886C43.9308 51.4174 39.9424 50.2316 35.8582 50.2448C35.5781 50.5394 36.9643 53.1456 37.1686 53.6601C39.1836 58.7157 39.3422 61.9361 37.9289 67.2307C37.8274 67.6103 37.1215 69.51 37.1515 69.6361C37.1858 69.7812 37.363 69.853 37.5045 69.8735C38.0561 69.9527 42.0417 68.2919 42.9677 68.0046C44.4996 67.5297 46.0816 67.1867 47.6335 66.7836C47.965 66.8246 48.0822 67.1574 48.1279 67.4594C48.2065 67.9753 48.2065 71.0433 47.9607 71.2954C47.6864 71.5768 42.5261 72.6366 41.7458 72.7553C40.1925 72.9913 38.2047 73.2024 36.6442 73.2464C36.3041 73.2567 35.9911 73.1526 35.6639 73.0954C35.1637 71.5299 35.711 69.9336 35.571 68.3271C35.6153 67.8331 36.1226 68.0984 36.417 67.7291C36.89 67.1369 37.5059 63.638 37.5702 62.7614C37.6731 61.3381 37.6088 58.0092 37.0072 56.753C36.6313 55.9703 35.9554 56.0568 35.8768 55.9351C35.8068 55.8252 35.7996 53.8463 35.6481 53.3142C35.4466 52.6077 33.9947 50.1803 34.0019 49.7244C34.009 49.2729 35.3995 49.0106 35.8496 48.6969C36.6428 48.1428 37.7688 46.4556 38.2204 45.5644C38.4533 45.1056 39.4308 42.8219 39.2236 42.4818C38.9249 41.9922 36.657 41.8676 36.1497 41.5246C35.671 41.2007 35.8125 39.1075 36.0183 38.5461C36.2198 38.4156 37.1215 38.6883 37.3973 38.7806C37.8617 38.936 39.4722 39.9899 39.6909 39.3127C39.8524 38.8143 39.4822 37.0949 39.3208 36.5145C39.1021 35.7259 37.5673 32.589 37.5731 32.3017C37.5831 31.8444 38.8492 31.2361 38.7049 30.5662C38.5791 30.1528 36.0883 29.7614 35.9197 29.0197C35.5553 27.6668 36.2641 23.1726 35.691 22.2257C35.5138 21.9325 34.8136 21.8622 34.5921 22.0029C34.2748 22.2052 34.5135 27.8764 34.1262 28.7002C33.2645 28.8614 28.8602 27.1538 28.4344 27.5466C29.7048 30.1792 30.3178 32.5245 29.5033 35.4518C29.206 36.5218 28.5573 37.2034 28.4344 38.2353C29.6905 38.2192 33.0187 37.523 34.039 38.0888C34.4892 38.3394 34.282 40.4795 34.1348 41.0057C33.8304 41.271 27.2911 39.4095 26.3494 39.2673C26.2308 39.235 26.0221 39.408 26.0078 39.4828C25.9621 39.7173 26.8024 41.2153 26.9339 41.6067C27.6641 43.7849 27.3997 46.7561 26.3965 48.8098L24.1544 52.508C24.3087 52.7572 24.5459 52.7469 24.7946 52.744C26.2151 52.7308 27.9085 52.3526 29.3661 52.294C30.0477 52.2661 33.4317 52.2031 33.7232 52.6883C33.9476 53.0621 34.1219 55.4983 33.2273 55.3766C31.9912 55.362 23.2484 53.386 22.8697 53.7584C23.2812 55.0805 24.3001 56.1696 24.656 57.5621C25.029 59.0162 24.9561 61.363 24.6574 62.842C24.2301 64.9704 22.9597 66.6033 22.1552 68.547C24.3344 68.4957 26.4766 67.8522 28.6516 67.6704C29.3432 67.6133 30.0949 67.6939 30.798 67.6748C31.1438 67.666 33.2902 67.2805 33.2902 67.8888C33.2902 68.4971 33.416 70.7164 33.2902 71.1107C33.123 71.6355 29.0946 71.5021 28.3586 71.483C27.7813 71.4684 25.8335 71.1034 25.4291 71.3951C24.8117 71.8377 26.0964 74.5818 26.0136 75.3572C25.995 75.536 26.0636 75.6503 25.8006 75.5741C24.8032 75.2839 22.5953 72.6117 21.8736 71.6941C3.83345 48.8024 17.8366 13.6521 46.6389 11.15C73.0861 8.85156 92.7925 35.0281 83.8925 60.7855C81.5803 67.4784 73.3247 80.0507 65.7723 80.5667V80.5652Z" fill="white"/>
<path d="M65.6079 88.4499C67.3328 88.2007 69.2348 87.4472 70.6896 86.4901L68.9062 86.2716C59.8446 85.5754 54.7773 80.6312 45.2198 83.2066C40.0467 84.6006 35.1594 87.1673 29.5762 86.5648C29.3361 86.7803 30.6522 87.4941 30.8066 87.5718C38.8463 91.6263 46.3759 84.9539 54.3028 86.4607C58.1555 87.1937 61.5538 89.0362 65.6065 88.4513L65.6079 88.4499Z" fill="white"/>
<path d="M52.9238 87.8753C48.7496 87.5792 44.4253 89.5404 40.2111 90.2235C39.9981 90.2587 39.7709 90.2323 39.7123 90.5152C46.5574 92.8517 54.4729 92.6685 61.2694 90.222C61.1622 89.923 60.7906 89.8263 60.5277 89.7398C58.68 89.1329 54.7587 88.0042 52.9238 87.8738V87.8753Z" fill="white"/>
<defs>
<linearGradient id="paint0_linear_41_213" x1="68.5446" y1="222.37" x2="-106.111" y2="125.183" gradientUnits="userSpaceOnUse">
<stop stop-color="#8ABBFF"/>
<stop offset="1" stop-color="#075EFF"/>
</linearGradient>
</defs>
</svg>
